# xmcd
#
# Track frame offsets:
#	150
#	11625
#	23550
#	37800
#	52500
#	79425
#	95250
#	109650
#	128625
#	140925
#	156225
#	170925
#	182100
#	193350
#	205800
#	217725
#
# Disc length: 3096
#
# Revision: 3
# Processed by: cddbd v1.5.1PL0 Copyright (c) Steve Scherf et al.
# Submitted via: audiograbber 1.80
# Normalized: r1:TDELIM( - ),TSWAP
#
DISCID=d80c1610
DTITLE=Al Jolson and Eddie Cantor - The Very Best Of
DYEAR=1900
DGENRE=
TTITLE0=Al Jolson - Let Me Sing When I Am Happy
TTITLE1=Al Jolson - When The Red Robin Comes
TTITLE2=Al Jolson - Calafornia Here I Come
TTITLE3=Al Jolson - April Showers
TTITLE4=Al Jolson - About a Quarter to Nine
TTITLE5=Al Jolson - Rock a Bye Your Baby
TTITLE6=Al Jolson - Mammy
TTITLE7=Al Jolson - Toot Toot Tootsie
TTITLE8=Eddie Cantor - That's the Kind of Baby
TTITLE9=Eddie Cantor - Keep Young and Beautiful
TTITLE10=Eddie Cantor - An Earful Of Music
TTITLE11=Eddie Cantor - Okay Toots
TTITLE12=Eddie Cantor - Makin Whoopie
TTITLE13=Eddie Cantor - Mandy
TTITLE14=Eddie Cantor - There's Nothing to Good
TTITLE15=Eddie Cantor - Makin the Best
EXTD=
EXTT0=
EXTT1=
EXTT2=
EXTT3=
EXTT4=
EXTT5=
EXTT6=
EXTT7=
EXTT8=
EXTT9=
EXTT10=
EXTT11=
EXTT12=
EXTT13=
EXTT14=
EXTT15=
PLAYORDER=
